<svg width="803" height="236" viewBox="0 0 803 236" fill="none" xmlns="http://www.w3.org/2000/svg">
<path d="M219 163.8V71.64H234.36V163.8H219ZM252.14 163.8V99.288H267.5V163.8H252.14ZM259.82 89.048C257.004 89.048 254.657 88.1947 252.78 86.488C250.988 84.696 250.092 82.52 250.092 79.96C250.092 77.3147 250.988 75.1813 252.78 73.56C254.657 71.8533 257.004 71 259.82 71C262.636 71 264.94 71.8533 266.732 73.56C268.609 75.1813 269.548 77.3147 269.548 79.96C269.548 82.52 268.609 84.696 266.732 86.488C264.94 88.1947 262.636 89.048 259.82 89.048ZM302.914 163.8L279.106 99.288H295.234L312.258 149.208L329.282 99.288H345.154L321.346 163.8H302.914ZM383.592 165.336C377.277 165.336 371.602 163.928 366.568 161.112C361.618 158.211 357.736 154.243 354.92 149.208C352.189 144.088 350.824 138.285 350.824 131.8C350.824 125.059 352.189 119.171 354.92 114.136C357.736 109.016 361.618 105.005 366.568 102.104C371.602 99.2027 377.32 97.752 383.72 97.752C391.741 97.752 398.482 99.8853 403.944 104.152C409.405 108.333 412.904 114.093 414.44 121.432H398.312C397.458 118.189 395.666 115.629 392.936 113.752C390.29 111.875 387.133 110.936 383.464 110.936C380.306 110.936 377.405 111.747 374.76 113.368C372.2 114.989 370.152 117.336 368.616 120.408C367.165 123.48 366.44 127.192 366.44 131.544C366.44 134.872 366.866 137.816 367.72 140.376C368.573 142.936 369.768 145.112 371.304 146.904C372.925 148.611 374.76 149.933 376.808 150.872C378.856 151.811 381.074 152.28 383.464 152.28C385.938 152.28 388.157 151.896 390.12 151.128C392.168 150.275 393.874 149.037 395.24 147.416C396.69 145.795 397.714 143.875 398.312 141.656H414.44C412.904 148.824 409.405 154.584 403.944 158.936C398.482 163.203 391.698 165.336 383.592 165.336ZM429.25 163.8V71.64H444.61V109.272C446.743 105.773 449.644 103 453.314 100.952C456.983 98.8187 461.122 97.752 465.73 97.752C471.02 97.752 475.5 98.8613 479.17 101.08C482.839 103.213 485.612 106.413 487.49 110.68C489.452 114.861 490.434 120.109 490.434 126.424V163.8H475.202V127.832C475.202 122.285 474.007 118.061 471.618 115.16C469.314 112.259 465.772 110.808 460.994 110.808C457.922 110.808 455.148 111.576 452.674 113.112C450.199 114.563 448.236 116.696 446.786 119.512C445.335 122.243 444.61 125.613 444.61 129.624V163.8H429.25ZM528.254 165.336C522.963 165.336 518.568 164.44 515.07 162.648C511.571 160.856 508.968 158.467 507.262 155.48C505.555 152.493 504.702 149.251 504.702 145.752C504.702 141.656 505.726 138.115 507.774 135.128C509.907 132.141 513.022 129.837 517.118 128.216C521.214 126.509 526.248 125.656 532.222 125.656H548.478C548.478 122.243 548.008 119.427 547.07 117.208C546.131 114.904 544.68 113.197 542.718 112.088C540.755 110.979 538.238 110.424 535.166 110.424C531.667 110.424 528.68 111.235 526.206 112.856C523.731 114.392 522.195 116.781 521.598 120.024H506.494C507.006 115.416 508.542 111.491 511.102 108.248C513.662 104.92 517.032 102.36 521.214 100.568C525.48 98.6907 530.131 97.752 535.166 97.752C541.224 97.752 546.387 98.8187 550.654 100.952C554.92 103 558.163 105.987 560.382 109.912C562.686 113.752 563.838 118.403 563.838 123.864V163.8H550.782L549.246 153.432C548.392 155.139 547.283 156.717 545.918 158.168C544.638 159.619 543.144 160.899 541.438 162.008C539.731 163.032 537.768 163.843 535.55 164.44C533.416 165.037 530.984 165.336 528.254 165.336ZM531.71 153.176C534.184 153.176 536.36 152.749 538.238 151.896C540.2 150.957 541.864 149.677 543.23 148.056C544.68 146.349 545.79 144.472 546.558 142.424C547.326 140.376 547.838 138.2 548.094 135.896V135.64H533.886C530.899 135.64 528.424 136.024 526.462 136.792C524.499 137.475 523.091 138.499 522.238 139.864C521.384 141.229 520.958 142.808 520.958 144.6C520.958 146.392 521.384 147.928 522.238 149.208C523.091 150.488 524.328 151.469 525.95 152.152C527.571 152.835 529.491 153.176 531.71 153.176ZM607.282 163.8C602.93 163.8 599.132 163.117 595.89 161.752C592.732 160.387 590.258 158.125 588.466 154.968C586.674 151.811 585.778 147.544 585.778 142.168V112.216H574.77V99.288H585.778L587.57 82.264H601.138V99.288H618.674V112.216H601.138V142.168C601.138 145.411 601.82 147.672 603.186 148.952C604.636 150.147 607.026 150.744 610.354 150.744H618.29V163.8H607.282ZM639.781 164.44C636.879 164.44 634.533 163.544 632.741 161.752C630.949 159.96 630.053 157.827 630.053 155.352C630.053 152.707 630.949 150.488 632.741 148.696C634.533 146.904 636.879 146.008 639.781 146.008C642.597 146.008 644.901 146.904 646.693 148.696C648.485 150.488 649.381 152.707 649.381 155.352C649.381 157.827 648.485 159.96 646.693 161.752C644.901 163.544 642.597 164.44 639.781 164.44Z" fill="#F4F4F4"/>
<g clip-path="url(#clip0_667_496)">
<path d="M67.9746 41.0791C74.6836 40.9223 81.9399 41.0459 88.6914 41.0459L127.223 41.0439L146.677 41.0449C151.359 41.0487 157.549 40.8917 162.023 41.6963C167.499 42.6863 172.611 45.0794 176.846 48.6328C190.739 60.2519 188.43 74.3739 188.434 90.3818L188.444 127.177L188.461 152.402C188.471 158.912 189.066 165.848 186.883 172.045C182.135 185.522 170.946 192.928 156.787 193.911C150.323 194.088 143.165 193.942 136.658 193.941L98.3223 193.935L78.5996 193.938C66.3878 193.944 57.1752 194.416 47.2363 185.913C40.7928 180.362 36.8405 172.533 36.2393 164.13C35.8223 158.27 36.0768 150.357 36.082 144.326L36.1289 108.045L36.1221 83.1846C36.1212 78.7093 35.7842 72.7188 36.54 68.4268C39.3655 52.3866 51.8249 42.1094 67.9746 41.0791ZM147.704 51.1855C129.372 51.4025 110.984 50.9592 92.6729 51.2422C87.9547 51.1207 83.1743 51.2435 78.5068 51.2021C69.4452 51.0474 61.04 50.7392 54.0293 57.3936C48.4659 62.6743 46.4089 68.8196 46.3984 76.3027C46.3733 94.5302 46.4305 112.704 46.418 130.927C46.4167 132.788 46.3588 134.742 46.4346 136.587L46.3984 151.58C46.3776 161.003 45.7202 169.059 53.0508 176.419C56.6014 179.983 62.8276 182.963 67.918 183.142C69.4419 183.486 75.1265 183.387 76.9482 183.38L92.1738 183.354C112.675 183.352 133.199 183.369 153.699 183.32C160.57 183.304 166.875 181.217 171.728 176.244C174.38 173.52 176.249 170.152 177.14 166.484C178.021 162.922 177.948 159.142 177.914 155.493C177.818 145.238 178.072 134.936 177.869 124.686C178.061 119.597 177.892 113.38 177.894 108.218L177.88 78.5723C177.915 77.6102 177.933 76.6481 177.936 75.6855C177.914 68.622 176.083 62.9309 170.936 57.9229C164.159 51.326 156.608 51.0803 147.704 51.1855Z" fill="url(#paint0_linear_667_496)"/>
<path d="M120.79 65.8418C121.83 65.0452 123.16 64.7099 124.461 64.9157C130.179 65.8721 126.493 74.1191 125.552 77.5231L121.67 91.593C120.973 94.1186 120.01 97.2647 119.496 99.7787C118.874 101.756 118.129 105.363 118.024 105.998C117.918 106.632 119.136 106.919 119.531 107.003C122.624 107.654 127.253 107.101 130.436 106.944C132.016 106.627 137.861 106.572 139.626 106.561C145.715 105.927 148.34 109.638 144.916 114.763C142.222 118.795 139.381 122.638 136.524 126.557L122.945 145.3L113.876 157.874C111.802 160.791 109.821 163.802 107.42 166.468C105.757 168.314 103.281 168.766 101.435 166.876C100.536 165.942 100.052 164.695 100.087 163.411C100.124 162.176 102.471 154.469 102.94 152.847C104.978 145.812 106.957 138.76 108.877 131.694C109.108 130.689 110.514 126.492 108.447 126.523C102.721 126.613 96.8719 127.629 91.1159 127.888C88.7724 127.999 85.3254 128.42 83.1955 127.184C77.7812 124.043 83.7321 117.804 85.5819 114.747L85.7003 114.549C86.8194 113.316 88.6181 110.573 89.6241 109.148L95.1451 101.454C101.129 92.8737 107.173 84.333 113.274 75.8329C114.958 73.4556 118.788 67.3543 120.79 65.8418Z" fill="url(#paint1_linear_667_496)"/>
</g>
<path d="M632.688 161.752C634.48 163.544 636.826 164.44 639.728 164.44C642.544 164.44 644.848 163.544 646.64 161.752C648.432 159.96 649.328 157.827 649.328 155.352C649.328 152.707 648.432 150.488 646.64 148.696C644.848 146.904 642.544 146.008 639.728 146.008C636.826 146.008 634.48 146.904 632.688 148.696C630.896 150.488 630 152.707 630 155.352C630 157.827 630.896 159.96 632.688 161.752Z" fill="url(#paint2_linear_667_496)"/>
<path d="M737.462 99.288V163.8H752.822V99.288H737.462Z" fill="url(#paint3_linear_667_496)"/>
<path d="M738.102 86.488C739.979 88.1947 742.326 89.048 745.142 89.048C747.958 89.048 750.262 88.1947 752.054 86.488C753.931 84.696 754.87 82.52 754.87 79.96C754.87 77.3147 753.931 75.1813 752.054 73.56C750.262 71.8533 747.958 71 745.142 71C742.326 71 739.979 71.8533 738.102 73.56C736.31 75.1813 735.414 77.3147 735.414 79.96C735.414 82.52 736.31 84.696 738.102 86.488Z" fill="url(#paint4_linear_667_496)"/>
<path fill-rule="evenodd" clip-rule="evenodd" d="M684.826 165.336C679.535 165.336 675.14 164.44 671.642 162.648C668.143 160.856 665.54 158.467 663.834 155.48C662.127 152.493 661.274 149.251 661.274 145.752C661.274 141.656 662.298 138.115 664.346 135.128C666.479 132.141 669.594 129.837 673.69 128.216C677.786 126.509 682.82 125.656 688.794 125.656H705.05C705.05 122.243 704.58 119.427 703.642 117.208C702.703 114.904 701.252 113.197 699.29 112.088C697.327 110.979 694.81 110.424 691.738 110.424C688.239 110.424 685.252 111.235 682.778 112.856C680.303 114.392 678.767 116.781 678.17 120.024H663.066C663.578 115.416 665.114 111.491 667.674 108.248C670.234 104.92 673.604 102.36 677.786 100.568C682.052 98.6907 686.703 97.752 691.738 97.752C697.796 97.752 702.959 98.8187 707.226 100.952C711.492 103 714.735 105.987 716.954 109.912C719.258 113.752 720.41 118.403 720.41 123.864V163.8H707.354L705.818 153.432C704.964 155.139 703.855 156.717 702.49 158.168C701.21 159.619 699.716 160.899 698.01 162.008C696.303 163.032 694.34 163.843 692.122 164.44C689.988 165.037 687.556 165.336 684.826 165.336ZM694.81 151.896C692.932 152.749 690.756 153.176 688.282 153.176C686.063 153.176 684.143 152.835 682.522 152.152C680.9 151.469 679.663 150.488 678.81 149.208C677.956 147.928 677.53 146.392 677.53 144.6C677.53 142.808 677.956 141.229 678.81 139.864C679.663 138.499 681.071 137.475 683.034 136.792C684.996 136.024 687.471 135.64 690.458 135.64H704.666V135.896C704.41 138.2 703.898 140.376 703.13 142.424C702.362 144.472 701.252 146.349 699.802 148.056C698.436 149.677 696.772 150.957 694.81 151.896Z" fill="url(#paint5_linear_667_496)"/>
<defs>
<linearGradient id="paint0_linear_667_496" x1="180.76" y1="181.56" x2="45.8147" y2="51.0346" gradientUnits="userSpaceOnUse">
<stop stop-color="#B6B1FE"/>
<stop offset="1" stop-color="#FFD4FF"/>
</linearGradient>
<linearGradient id="paint1_linear_667_496" x1="127.812" y1="120.262" x2="97.4516" y2="88.0474" gradientUnits="userSpaceOnUse">
<stop stop-color="#C975FF"/>
<stop offset="1" stop-color="#FFE3FF"/>
</linearGradient>
<linearGradient id="paint2_linear_667_496" x1="770.5" y1="159" x2="665" y2="82.5" gradientUnits="userSpaceOnUse">
<stop stop-color="#7C3AED"/>
<stop offset="1" stop-color="#FF9AD9"/>
</linearGradient>
<linearGradient id="paint3_linear_667_496" x1="770.5" y1="159" x2="665" y2="82.5" gradientUnits="userSpaceOnUse">
<stop stop-color="#7C3AED"/>
<stop offset="1" stop-color="#FF9AD9"/>
</linearGradient>
<linearGradient id="paint4_linear_667_496" x1="770.5" y1="159" x2="665" y2="82.5" gradientUnits="userSpaceOnUse">
<stop stop-color="#7C3AED"/>
<stop offset="1" stop-color="#FF9AD9"/>
</linearGradient>
<linearGradient id="paint5_linear_667_496" x1="770.5" y1="159" x2="665" y2="82.5" gradientUnits="userSpaceOnUse">
<stop stop-color="#7C3AED"/>
<stop offset="1" stop-color="#FF9AD9"/>
</linearGradient>
<clipPath id="clip0_667_496">
<rect width="153" height="153" fill="white" transform="translate(36 41)"/>
</clipPath>
</defs>
</svg>
