<svg width="32" height="32" viewBox="0 0 32 32" fill="none" xmlns="http://www.w3.org/2000/svg">
  <circle cx="16" cy="16" r="14" fill="#25D366"/>
  <path d="M16 6C10.48 6 6 10.48 6 16C6 17.85 6.5 19.55 7.36 21L6 26L11.18 24.68C12.55 25.41 14.22 26 16 26C21.52 26 26 21.52 26 16C26 10.48 21.52 6 16 6ZM21.36 19.88C21.12 20.52 20.04 21.08 19.32 21.2C18.72 21.32 17.92 21.36 17.08 21.08C16.56 20.92 15.88 20.68 15 20.28C12.28 19.04 10.48 16.28 10.32 16.08C10.16 15.88 9 14.4 9 12.84C9 11.28 9.84 10.52 10.12 10.2C10.4 9.88 10.72 9.8 10.92 9.8C11.12 9.8 11.32 9.8 11.48 9.8C11.68 9.8 11.92 9.76 12.16 10.32C12.4 10.88 12.96 12.44 13.04 12.6C13.12 12.76 13.16 12.96 13.04 13.16C12.92 13.36 12.84 13.48 12.68 13.68C12.52 13.88 12.36 14.08 12.2 14.24C12.04 14.4 11.88 14.6 12.08 14.92C12.28 15.24 12.96 16.32 13.96 17.2C15.24 18.32 16.32 18.68 16.64 18.84C16.96 19 17.16 18.96 17.36 18.72C17.56 18.48 18.2 17.72 18.44 17.4C18.68 17.08 18.92 17.12 19.24 17.24C19.56 17.36 21.12 18.12 21.44 18.28C21.76 18.44 21.96 18.52 22.04 18.64C22.12 18.76 22.12 19.32 21.88 19.96C21.64 20.6 21.6 20.6 21.36 19.88Z" fill="white"/>
</svg>
